<svg width="20" height="20" viewBox="0 0 20 20" fill="none" xmlns="http://www.w3.org/2000/svg">
<path d="M10.3444 14.8975L14.2819 17.3975C14.7897 17.7178 15.4147 17.2412 15.2662 16.6553L14.1256 12.1709C14.0948 12.0466 14.0997 11.9161 14.1398 11.7945C14.1798 11.6729 14.2535 11.565 14.3522 11.4834L17.8834 8.53811C18.3444 8.15529 18.11 7.38186 17.5084 7.34279L12.899 7.04592C12.7733 7.0386 12.6524 6.99481 12.5511 6.91988C12.4498 6.84496 12.3725 6.74216 12.3287 6.62404L10.61 2.29592C10.5645 2.17084 10.4816 2.0628 10.3726 1.98645C10.2636 1.9101 10.1337 1.86914 10.0006 1.86914C9.86751 1.86914 9.73764 1.9101 9.62863 1.98645C9.51961 2.0628 9.43673 2.17084 9.39123 2.29592L7.67248 6.62404C7.62868 6.74216 7.55141 6.84496 7.45013 6.91988C7.34885 6.99481 7.22794 7.0386 7.10217 7.04592L2.49279 7.34279C1.89123 7.38186 1.65686 8.15529 2.11779 8.53811L5.64904 11.4834C5.74774 11.565 5.82138 11.6729 5.86146 11.7945C5.90155 11.9161 5.90645 12.0466 5.87561 12.1709L4.82092 16.3272C4.64123 17.0303 5.39123 17.6006 5.99279 17.2178L9.65686 14.8975C9.7596 14.8321 9.87885 14.7974 10.0006 14.7974C10.1224 14.7974 10.2416 14.8321 10.3444 14.8975Z" fill="#EBC80C"/>
</svg>
